<svg id="visual" viewBox="0 0 1200 540" width="1200" height="540" xmlns="http://www.w3.org/2000/svg" xmlns:xlink="http://www.w3.org/1999/xlink" version="1.1"><rect x="0" y="0" width="1200" height="540" fill="#F5F5F5"></rect><path d="M0 399L28.5 386.3C57 373.7 114 348.3 171.2 340C228.3 331.7 285.7 340.3 342.8 343.7C400 347 457 345 514.2 350.7C571.3 356.3 628.7 369.7 685.8 367C743 364.3 800 345.7 857.2 337.7C914.3 329.7 971.7 332.3 1028.8 331.8C1086 331.3 1143 327.7 1171.5 325.8L1200 324L1200 541L1171.5 541C1143 541 1086 541 1028.8 541C971.7 541 914.3 541 857.2 541C800 541 743 541 685.8 541C628.7 541 571.3 541 514.2 541C457 541 400 541 342.8 541C285.7 541 228.3 541 171.2 541C114 541 57 541 28.5 541L0 541Z" fill="#00c1d4"></path><path d="M0 377L28.5 384.7C57 392.3 114 407.7 171.2 404.7C228.3 401.7 285.7 380.3 342.8 377.8C400 375.3 457 391.7 514.2 399.2C571.3 406.7 628.7 405.3 685.8 397C743 388.7 800 373.3 857.2 376C914.3 378.7 971.7 399.3 1028.8 398.7C1086 398 1143 376 1171.5 365L1200 354L1200 541L1171.5 541C1143 541 1086 541 1028.8 541C971.7 541 914.3 541 857.2 541C800 541 743 541 685.8 541C628.7 541 571.3 541 514.2 541C457 541 400 541 342.8 541C285.7 541 228.3 541 171.2 541C114 541 57 541 28.5 541L0 541Z" fill="#00bae4"></path><path d="M0 411L28.5 417.8C57 424.7 114 438.3 171.2 441.7C228.3 445 285.7 438 342.8 429.8C400 421.7 457 412.3 514.2 413.3C571.3 414.3 628.7 425.7 685.8 430.5C743 435.3 800 433.7 857.2 426.8C914.3 420 971.7 408 1028.8 406.3C1086 404.7 1143 413.3 1171.5 417.7L1200 422L1200 541L1171.5 541C1143 541 1086 541 1028.8 541C971.7 541 914.3 541 857.2 541C800 541 743 541 685.8 541C628.7 541 571.3 541 514.2 541C457 541 400 541 342.8 541C285.7 541 228.3 541 171.2 541C114 541 57 541 28.5 541L0 541Z" fill="#00b1f0"></path><path d="M0 446L28.5 449.8C57 453.7 114 461.3 171.2 459.8C228.3 458.3 285.7 447.7 342.8 448.7C400 449.7 457 462.3 514.2 462.7C571.3 463 628.7 451 685.8 446.7C743 442.3 800 445.7 857.2 451.2C914.3 456.7 971.7 464.3 1028.8 469.5C1086 474.7 1143 477.3 1171.5 478.7L1200 480L1200 541L1171.5 541C1143 541 1086 541 1028.8 541C971.7 541 914.3 541 857.2 541C800 541 743 541 685.8 541C628.7 541 571.3 541 514.2 541C457 541 400 541 342.8 541C285.7 541 228.3 541 171.2 541C114 541 57 541 28.5 541L0 541Z" fill="#00a6f9"></path><path d="M0 511L28.5 504.5C57 498 114 485 171.2 478.7C228.3 472.3 285.7 472.7 342.8 474.2C400 475.7 457 478.3 514.2 479C571.3 479.7 628.7 478.3 685.8 479.2C743 480 800 483 857.2 483.2C914.3 483.3 971.7 480.7 1028.8 482.2C1086 483.7 1143 489.3 1171.5 492.2L1200 495L1200 541L1171.5 541C1143 541 1086 541 1028.8 541C971.7 541 914.3 541 857.2 541C800 541 743 541 685.8 541C628.7 541 571.3 541 514.2 541C457 541 400 541 342.8 541C285.7 541 228.3 541 171.2 541C114 541 57 541 28.5 541L0 541Z" fill="#0099ff"></path></svg>