<svg id="visual" viewBox="0 0 1200 600" width="1200" height="600" xmlns="http://www.w3.org/2000/svg" xmlns:xlink="http://www.w3.org/1999/xlink" version="1.1"><rect x="0" y="0" width="1200" height="600" fill="#F5F5F5"></rect><path d="M0 355L28.5 368.8C57 382.7 114 410.3 171.2 425.5C228.3 440.7 285.7 443.3 342.8 442.8C400 442.3 457 438.7 514.2 438.5C571.3 438.3 628.7 441.7 685.8 437.8C743 434 800 423 857.2 421.8C914.3 420.7 971.7 429.3 1028.8 426C1086 422.7 1143 407.3 1171.5 399.7L1200 392L1200 601L1171.5 601C1143 601 1086 601 1028.8 601C971.7 601 914.3 601 857.2 601C800 601 743 601 685.8 601C628.7 601 571.3 601 514.2 601C457 601 400 601 342.8 601C285.7 601 228.3 601 171.2 601C114 601 57 601 28.5 601L0 601Z" fill="#39adfa"></path><path d="M0 394L28.5 396.5C57 399 114 404 171.2 415.7C228.3 427.3 285.7 445.7 342.8 451C400 456.3 457 448.7 514.2 445.7C571.3 442.7 628.7 444.3 685.8 437.3C743 430.3 800 414.7 857.2 405.8C914.3 397 971.7 395 1028.8 395.8C1086 396.7 1143 400.3 1171.5 402.2L1200 404L1200 601L1171.5 601C1143 601 1086 601 1028.8 601C971.7 601 914.3 601 857.2 601C800 601 743 601 685.8 601C628.7 601 571.3 601 514.2 601C457 601 400 601 342.8 601C285.7 601 228.3 601 171.2 601C114 601 57 601 28.5 601L0 601Z" fill="#2ca8fc"></path><path d="M0 444L28.5 448.5C57 453 114 462 171.2 469.8C228.3 477.7 285.7 484.3 342.8 490.5C400 496.7 457 502.3 514.2 505.7C571.3 509 628.7 510 685.8 504.7C743 499.3 800 487.7 857.2 478C914.3 468.3 971.7 460.7 1028.8 462.7C1086 464.7 1143 476.3 1171.5 482.2L1200 488L1200 601L1171.5 601C1143 601 1086 601 1028.8 601C971.7 601 914.3 601 857.2 601C800 601 743 601 685.8 601C628.7 601 571.3 601 514.2 601C457 601 400 601 342.8 601C285.7 601 228.3 601 171.2 601C114 601 57 601 28.5 601L0 601Z" fill="#1fa3fd"></path><path d="M0 504L28.5 501.5C57 499 114 494 171.2 496C228.3 498 285.7 507 342.8 512C400 517 457 518 514.2 519.5C571.3 521 628.7 523 685.8 523.8C743 524.7 800 524.3 857.2 523.2C914.3 522 971.7 520 1028.8 518.7C1086 517.3 1143 516.7 1171.5 516.3L1200 516L1200 601L1171.5 601C1143 601 1086 601 1028.8 601C971.7 601 914.3 601 857.2 601C800 601 743 601 685.8 601C628.7 601 571.3 601 514.2 601C457 601 400 601 342.8 601C285.7 601 228.3 601 171.2 601C114 601 57 601 28.5 601L0 601Z" fill="#109efe"></path><path d="M0 569L28.5 567.8C57 566.7 114 564.3 171.2 561.2C228.3 558 285.7 554 342.8 555.7C400 557.3 457 564.7 514.2 567C571.3 569.3 628.7 566.7 685.8 559.3C743 552 800 540 857.2 541.2C914.3 542.3 971.7 556.7 1028.8 557.7C1086 558.7 1143 546.3 1171.5 540.2L1200 534L1200 601L1171.5 601C1143 601 1086 601 1028.8 601C971.7 601 914.3 601 857.2 601C800 601 743 601 685.8 601C628.7 601 571.3 601 514.2 601C457 601 400 601 342.8 601C285.7 601 228.3 601 171.2 601C114 601 57 601 28.5 601L0 601Z" fill="#0099ff"></path></svg>