<?xml version="1.0" standalone="no"?><svg xmlns="http://www.w3.org/2000/svg" viewBox="0 0 1440 320"><path fill="#0099ff" fill-opacity="1" d="M0,128L16,138.7C32,149,64,171,96,176C128,181,160,171,192,165.3C224,160,256,160,288,160C320,160,352,160,384,144C416,128,448,96,480,101.3C512,107,544,149,576,154.7C608,160,640,128,672,101.3C704,75,736,53,768,85.3C800,117,832,203,864,218.7C896,235,928,181,960,165.3C992,149,1024,171,1056,197.3C1088,224,1120,256,1152,261.3C1184,267,1216,245,1248,213.3C1280,181,1312,139,1344,122.7C1376,107,1408,117,1424,122.7L1440,128L1440,320L1424,320C1408,320,1376,320,1344,320C1312,320,1280,320,1248,320C1216,320,1184,320,1152,320C1120,320,1088,320,1056,320C1024,320,992,320,960,320C928,320,896,320,864,320C832,320,800,320,768,320C736,320,704,320,672,320C640,320,608,320,576,320C544,320,512,320,480,320C448,320,416,320,384,320C352,320,320,320,288,320C256,320,224,320,192,320C160,320,128,320,96,320C64,320,32,320,16,320L0,320Z"></path></svg>